<?xml version="1.0" standalone="no"?>
<!DOCTYPE svg PUBLIC "-//W3C//DTD SVG 20010904//EN"
 "http://www.w3.org/TR/2001/REC-SVG-20010904/DTD/svg10.dtd">
<svg version="1.0" xmlns="http://www.w3.org/2000/svg"
 width="100.000000pt" height="100.000000pt" viewBox="0 0 100.000000 100.000000"
 preserveAspectRatio="xMidYMid meet">
<metadata>
Created by potrace 1.11, written by Peter Selinger 2001-2013
</metadata>
<g transform="translate(0.000000,100.000000) scale(0.100000,-0.100000)"
fill="#000000" stroke="none">
<path d="M644 974 c-52 -36 -79 -65 -137 -154 -108 -165 -186 -385 -181 -508
l1 -43 -17 29 c-52 86 -203 22 -259 -110 -32 -76 -11 -139 54 -157 54 -15 98
5 169 75 63 63 64 63 69 36 8 -40 48 -93 85 -115 52 -31 153 -34 231 -8 91 31
325 191 301 206 -6 4 -21 -2 -33 -13 -30 -27 -175 -126 -218 -147 -86 -45
-192 -53 -251 -18 -35 20 -72 79 -81 129 -5 27 2 42 55 110 89 115 198 284
262 404 85 162 103 260 52 295 -30 22 -58 18 -102 -11z m82 -4 c26 -10 27 -13
21 -69 -9 -102 -122 -314 -284 -534 -42 -56 -80 -106 -86 -112 -19 -19 2 158
29 245 60 195 176 404 254 456 19 13 36 24 37 24 1 0 14 -5 29 -10z m-424
-692 c2 -13 1 -35 -3 -50 -8 -31 4 -37 20 -10 9 15 10 15 11 -4 0 -13 -19 -39
-48 -66 -58 -54 -79 -66 -125 -72 -45 -6 -68 18 -74 76 -7 73 52 151 128 167
43 10 86 -10 91 -41z"/>
</g>
</svg>
